<?xml version="1.0" encoding="utf-8"?>
<svg version="1.1" id="Слой_1" xmlns="http://www.w3.org/2000/svg" xmlns:xlink="http://www.w3.org/1999/xlink" x="0px" y="0px"
	 viewBox="0 0 576 512" style="enable-background:new 0 0 576 512;" xml:space="preserve">
<style type="text/css">
	.st0{fill:#464B51;}
</style>
<path class="st0" d="M301.2,34.8c-11.5-5.2-25-3.1-34.4,5.3L131.8,160H48c-26.5,0-48,21.5-48,47.1v95.1c0,26.5,21.5,47.1,48,47.1
	h83.8l134.9,119.9c6,5.3,13.6,8.1,21.3,8.1c4.4,0,9-0.9,13.2-2.8c11.5-5.2,18.8-16.6,18.8-29.2V64C319.1,51.4,312.7,40,301.2,34.8z
	 M513.9,255.1l47-47c9.4-9.4,9.4-24.6,0-33.9s-24.6-9.4-33.9,0l-47,48L432.1,175c-9.4-9.4-24.6-9.4-33.9,0s-9.4,24.6,0,33.9l47,47
	l-47,47c-9.4,9.4-9.4,24.6,0,33.9c9.4,9.4,24.6,9.4,33.9,0l47.9-47l47,47c9.4,9.4,24.6,9.4,33.9,0c9.4-9.4,9.4-24.6,0-33.9
	L513.9,255.1z"/>
</svg>
